<?xml version="1.0" encoding="UTF-8" standalone="no"?>
<svg
   xmlns:dc="http://purl.org/dc/elements/1.1/"
   xmlns:cc="http://creativecommons.org/ns#"
   xmlns:rdf="http://www.w3.org/1999/02/22-rdf-syntax-ns#"
   xmlns:svg="http://www.w3.org/2000/svg"
   xmlns="http://www.w3.org/2000/svg"
   xmlns:sodipodi="http://sodipodi.sourceforge.net/DTD/sodipodi-0.dtd"
   xmlns:inkscape="http://www.inkscape.org/namespaces/inkscape"
   width="16"
   height="16"
   version="1.0"
   id="svg2"
   inkscape:version="0.91 r13725"
   sodipodi:docname="english-symbolic.svg">
  <sodipodi:namedview
     pagecolor="#ffffff"
     bordercolor="#666666"
     borderopacity="1"
     objecttolerance="10"
     gridtolerance="10"
     guidetolerance="10"
     inkscape:pageopacity="0"
     inkscape:pageshadow="2"
     inkscape:window-width="1366"
     inkscape:window-height="705"
     id="namedview9"
     showgrid="false"
     inkscape:zoom="14.75"
     inkscape:cx="-3.9322034"
     inkscape:cy="8"
     inkscape:window-x="0"
     inkscape:window-y="30"
     inkscape:window-maximized="1"
     inkscape:current-layer="svg2" />
  <defs
     id="defs12" />
  <metadata
     id="metadata7">
    <rdf:RDF>
      <cc:Work
         rdf:about="">
        <dc:format>image/svg+xml</dc:format>
        <dc:type
           rdf:resource="http://purl.org/dc/dcmitype/StillImage" />
        <dc:title />
      </cc:Work>
    </rdf:RDF>
  </metadata>
  <g
     transform="matrix(0.17300941,0,0,0.17306135,-0.65046463,-0.65306736)"
     style="color:#bebebe;display:inline;overflow:visible;visibility:visible;opacity:0.5;fill:#bebebe;fill-opacity:1;fill-rule:nonzero;stroke:none;stroke-width:1.82310748;marker:none;enable-background:accumulate"
     id="g23861">
    <path
       id="path6570"
       d="m 49.91986,12.55663 c 19.65997,5.50959 39.54751,20.04409 37.37093,44.8786 -2.17518,24.81857 -29.44575,35.21931 -56.2747,12.022 l -0.96064,1.06471 c 0.45601,0.59778 1.12479,2.34719 0.0075,3.56186 -1.05447,1.14641 -2.69732,-0.13659 -3.58962,0.78335 -1.05763,1.09039 -0.74486,0.65996 -2.12995,3.87052 -3.27428,7.58959 -9.01818,9.85328 -10.97183,8.00163 -2.002,-1.89748 -0.53234,-7.33029 6.2474,-11.36181 3.40976,-2.02759 3.58057,-2.00348 4.11518,-2.90208 0.60106,-1.01028 -1.03432,-2.57336 0.12356,-3.93749 1.19763,-1.41095 2.7499,-0.85361 3.37759,-0.4037 l 2.9689,-3.67819 c 26.13725,14.62445 41.67758,7.79574 45.37021,-5.0745 3.62705,-12.64168 2.61138,-28.2185 -25.65456,-46.8249 z"
       inkscape:connector-curvature="0" />
    <path
       id="rect7857"
       d="m 32.908587,33.482171 c -1.634287,1.634287 -2.034311,1.538148 -1.256911,2.315549 l 49.516717,51.326245 c 0.7774,0.777401 2.718946,0.08756 4.353233,-1.546726 1.634287,-1.634287 2.324126,-3.575833 1.546726,-4.353233 L 35.285499,32.273612 c -0.7774,-0.777401 -0.742625,-0.425728 -2.376912,1.208559 z"
       inkscape:connector-curvature="0" />
    <path
       id="path7858"
       d="M 29.720348,49.454608 50.97795,28.197005 39.001283,26.031533 22.649278,42.383538 l 7.07107,7.07107 z"
       inkscape:connector-curvature="0" />
  </g>
</svg>
